<svg version="1.1" id="Layer_1" xmlns="http://www.w3.org/2000/svg" xmlns:xlink="http://www.w3.org/1999/xlink" x="0px" y="0px"
	 width="100%" viewBox="0 0 346 288" enable-background="new 0 0 346 288" xml:space="preserve">
<path fill="#291770" opacity="1.000000" stroke="none" 
	d="
M246.000000,289.000000 
	C232.312439,289.000000 218.624878,289.000000 204.481598,288.642761 
	C196.085297,282.529205 194.081772,282.595795 188.000000,289.000000 
	C177.645767,289.000000 167.291550,289.000000 156.511047,288.648254 
	C153.981735,286.635559 151.878677,284.974609 149.401459,283.018097 
	C146.779053,285.137543 144.389526,287.068756 142.000000,289.000000 
	C129.645767,289.000000 117.291542,289.000000 104.464401,288.636292 
	C94.239807,283.471313 84.439713,278.765350 74.749672,273.842712 
	C64.481613,268.626465 53.902298,265.276093 42.174801,264.824310 
	C29.653078,264.341949 17.874615,260.366333 7.225461,253.529633 
	C5.069553,252.145554 3.071062,250.516251 0.999998,249.000000 
	C1.000000,245.638718 1.000000,242.277420 1.366735,238.417191 
	C4.337086,236.851562 7.121206,236.069748 9.461184,234.587006 
	C10.489780,233.935257 11.313934,231.699951 11.035051,230.450592 
	C9.243464,222.424500 7.006836,214.497925 5.204525,206.473923 
	C4.857022,204.926819 5.784079,203.093414 6.123167,201.392090 
	C7.909021,201.912338 10.065623,201.960480 11.422983,203.026398 
	C24.049490,212.941818 38.015362,218.115952 54.344467,217.150116 
	C62.242813,216.682922 70.255486,217.582260 78.176025,218.305191 
	C81.909706,218.645996 85.548225,220.029373 90.574532,221.273041 
	C84.983582,212.268692 79.871414,204.932419 75.672523,197.106155 
	C62.669125,172.869278 53.161163,147.462509 48.619911,120.099472 
	C45.594425,101.869591 45.774769,83.671844 46.211231,65.443466 
	C46.523613,52.397209 53.493645,47.870541 66.176323,51.066528 
	C69.373672,51.872242 72.409721,53.297768 75.574692,54.257805 
	C78.893639,55.264549 82.621948,52.064442 81.669304,48.915020 
	C81.163376,47.242462 79.752686,45.850666 78.789497,44.307735 
	C77.220299,41.794044 75.070740,39.441162 74.260658,36.697269 
	C72.604149,31.086344 74.640228,28.236996 81.184921,24.181522 
	C96.339546,14.790824 112.364136,7.487200 129.699051,3.134218 
	C130.902145,2.832109 131.904373,1.730052 133.000000,0.999999 
	C155.354233,1.000000 177.708450,1.000000 200.556366,1.378281 
	C208.537262,4.171988 216.260651,6.036510 223.460190,9.123008 
	C236.520416,14.722034 249.499557,20.611109 262.059235,27.238260 
	C269.402893,31.113165 269.160248,39.964268 262.661255,45.273037 
	C261.634338,46.111889 261.349579,47.859303 260.721680,49.186630 
	C262.218445,49.797852 263.810272,51.079674 265.192566,50.883644 
	C268.270477,50.447151 271.215027,49.152351 274.265167,48.421173 
	C281.552216,46.674328 287.797821,49.336372 290.421997,56.213348 
	C291.842316,59.935314 292.004395,64.290802 292.029327,68.364799 
	C292.127594,84.442528 293.430267,100.707054 291.453735,116.548882 
	C289.464783,132.490250 284.671600,148.177185 280.096130,163.677139 
	C273.855011,184.819824 263.389221,204.015076 250.657776,221.985931 
	C248.363922,225.223770 246.360214,228.667175 244.222565,232.015686 
	C247.264709,231.818100 249.589279,231.014587 251.688416,229.816223 
	C263.852539,222.871948 276.495270,216.829117 290.655121,216.185364 
	C307.535309,215.417923 323.468842,212.536606 337.404633,202.201019 
	C340.606354,199.826447 342.757599,201.055176 342.942902,204.980087 
	C343.368073,213.984268 343.464600,222.948257 338.516937,231.079651 
	C337.888428,232.112595 337.206879,234.169403 337.672882,234.640045 
	C340.605133,237.601715 343.855072,240.248886 347.000000,243.000000 
	C347.000000,246.030594 347.000000,249.061188 346.627502,252.472672 
	C330.106537,260.368103 313.232300,264.975830 295.520538,267.388916 
	C287.224091,268.519226 279.180267,272.234467 271.295898,275.449860 
	C263.662628,278.562897 256.355591,282.487427 248.970642,286.186066 
	C247.803421,286.770630 246.981537,288.044708 246.000000,289.000000 
M87.891960,130.031158 
	C93.795563,129.656677 94.237648,128.759216 91.581612,123.712547 
	C89.903343,125.502357 88.081665,127.445107 86.000046,129.694519 
	C85.970169,129.984009 85.940300,130.273514 85.910431,130.563004 
	C86.296799,130.403748 86.683174,130.244492 87.891960,130.031158 
M235.175476,169.364166 
	C237.068039,163.499557 238.960602,157.634933 241.512207,151.521210 
	C243.141068,145.431641 246.764404,143.353531 253.032715,146.493500 
	C251.578247,144.798569 250.363113,143.732117 249.152542,142.660538 
	C247.327026,141.044662 244.546860,139.449722 246.853775,136.690765 
	C248.048538,135.261917 250.416641,134.356216 252.365311,134.117508 
	C255.714813,133.707214 259.150940,134.004044 263.335297,134.004044 
	C258.826050,129.059387 249.063126,133.737228 250.036789,123.691277 
	C250.619797,117.675835 250.760223,111.379219 259.079407,109.730949 
	C254.464050,108.065536 250.833450,106.219566 254.021759,101.504318 
	C255.561630,99.226997 254.879135,97.820366 254.501801,95.597755 
	C253.070312,87.165878 253.561859,81.121254 264.122589,82.003601 
	C268.080811,82.334312 272.038269,82.947563 275.995148,82.940224 
	C279.561890,82.933617 279.976776,84.756241 280.043945,87.647690 
	C280.118774,90.868065 278.950714,92.307961 275.697205,91.992615 
	C272.531189,91.685760 269.358154,91.451401 266.188202,91.185211 
	C268.842163,92.518166 271.593842,92.673058 274.312714,93.059105 
	C276.854553,93.420036 279.640381,93.287910 280.033752,97.150650 
	C280.430573,101.047478 278.655426,102.414276 274.823730,102.476692 
	C278.363617,103.646225 281.565948,104.977844 279.025574,109.059456 
	C277.446991,111.595802 275.011932,113.599075 273.729340,115.001678 
	C274.795959,117.149223 276.491547,119.272163 276.744537,121.554977 
	C276.897156,122.932121 274.807861,124.557709 273.999908,125.688309 
	C278.487579,130.196320 273.425415,135.068649 273.506989,139.666473 
	C273.526794,140.782242 268.751373,141.983078 266.018982,143.217987 
	C269.265076,145.575470 271.257202,149.093628 269.558716,153.777451 
	C266.783905,161.429398 264.285675,169.203903 261.048889,176.656616 
	C259.459778,180.315552 256.474823,183.368256 254.121582,186.695328 
	C253.748169,186.475708 253.374741,186.256073 253.001328,186.036438 
	C253.500565,188.137054 253.999802,190.237686 254.815704,193.670761 
	C255.730118,192.105026 256.113342,191.542694 256.404785,190.936203 
	C264.644989,173.786926 272.023651,156.373215 276.731903,137.801620 
	C281.838409,117.659012 283.570374,97.310234 282.921387,76.675804 
	C282.771667,71.915863 281.972656,67.151787 281.153839,62.445042 
	C280.470520,58.517342 278.129822,57.255451 274.217041,58.809921 
	C268.679749,61.009747 263.112213,63.182957 257.426666,64.944939 
	C252.577988,66.447571 250.638016,69.054489 250.893005,74.342850 
	C251.758652,92.296295 250.421112,110.159142 246.907867,127.790558 
	C245.294388,135.887863 242.951401,143.839813 240.413177,152.353256 
	C238.246094,157.879913 236.079010,163.406586 233.388657,169.375702 
	C232.060272,172.102707 230.731903,174.829712 229.403519,177.556717 
	C229.985703,177.814514 230.567871,178.072311 231.150055,178.330124 
	C232.318237,175.456039 233.486435,172.581970 235.175476,169.364166 
M222.400894,190.351990 
	C220.630447,193.169510 218.860001,195.987045 216.611816,199.564865 
	C219.550522,198.628891 221.415131,198.035019 222.792297,197.596390 
	C223.140549,195.048767 223.444061,192.828430 224.279877,190.168457 
	C227.800827,188.717636 228.824539,186.311798 227.114594,181.718857 
	C225.413010,185.049301 224.168289,187.485535 222.400894,190.351990 
M241.674332,28.419498 
	C240.290588,27.775238 238.906830,27.130976 237.523087,26.486713 
	C237.380402,26.797871 237.237717,27.109028 237.095032,27.420185 
	C238.493820,28.164665 239.892609,28.909147 241.790375,30.153091 
	C247.679138,33.613106 247.679138,33.613106 241.959000,44.611481 
	C247.256073,41.661686 251.409256,39.348885 256.931061,36.273949 
	C251.122635,33.397121 246.594696,31.154493 241.674332,28.419498 
M70.075661,156.605698 
	C71.234497,160.274841 72.393333,163.943985 73.494423,167.430252 
	C78.792007,164.991226 83.444962,162.848999 88.097908,160.706772 
	C87.943756,160.135132 87.789597,159.563492 87.635437,158.991852 
	C84.738182,158.991852 81.766808,159.396362 78.963646,158.882767 
	C75.910240,158.323334 73.012894,156.912094 70.020988,155.076859 
	C69.280006,147.163818 77.826576,146.715805 81.652809,140.873077 
	C77.362366,141.547211 74.006516,141.867523 70.758217,142.640030 
	C67.132568,143.502243 65.433510,142.159958 66.100586,138.678024 
	C66.702194,135.537872 68.042519,132.539230 69.140648,129.225952 
	C67.355553,128.287445 62.399689,130.194138 63.177364,125.044083 
	C63.511482,122.831436 65.374619,120.849670 66.369446,119.073090 
	C65.892761,118.996346 64.155174,118.716629 62.547741,118.457855 
	C61.412727,110.626038 61.780815,110.235619 68.830956,109.951820 
	C70.905640,109.868309 72.958832,109.250977 75.021873,108.878288 
	C71.747581,106.622108 68.476791,105.522987 65.162254,104.577187 
	C62.507950,103.819763 60.819088,102.672890 60.931454,99.430794 
	C61.034012,96.471634 61.522228,94.589073 64.789421,93.494171 
	C72.441711,90.929749 79.925293,87.861862 87.987503,84.804260 
	C87.987503,81.885246 87.972809,78.743851 87.991142,75.602638 
	C88.015320,71.458412 86.288025,68.782883 82.123703,67.495651 
	C77.222900,65.980766 72.446098,64.059875 67.631424,62.272236 
	C57.842773,58.637814 58.183037,59.591843 56.055119,69.447853 
	C55.951527,69.927689 56.025539,70.444931 56.008179,70.944450 
	C55.243355,92.949272 56.696384,114.734482 63.052502,135.944153 
	C65.065720,142.662064 67.755020,149.177338 70.075661,156.605698 
M183.706802,204.376709 
	C187.451157,206.014481 191.195496,207.652252 195.000854,209.316711 
	C196.047714,208.316345 197.148193,207.510178 197.941589,206.469833 
	C210.148514,190.463150 220.524048,173.397308 227.983887,154.628082 
	C234.065765,139.325912 238.084534,123.474434 239.805267,107.148087 
	C240.822952,97.492142 240.736694,87.710480 240.867218,77.981598 
	C240.884598,76.685349 239.484131,74.497986 238.346893,74.193718 
	C227.413513,71.268593 225.997726,69.980927 227.210007,58.770115 
	C227.729492,53.965927 225.971756,52.128590 222.088699,50.910301 
	C211.074753,47.454727 200.188736,43.506268 189.026566,40.627312 
	C170.193512,35.769871 151.483353,37.726662 133.375778,44.191971 
	C125.397087,47.040756 117.976906,51.453735 110.341545,55.138031 
	C110.886497,56.716656 111.028503,57.168449 111.196976,57.610149 
	C115.449089,68.758270 113.702896,78.759537 100.473648,78.199615 
	C99.376450,78.153175 97.199997,80.458618 97.196632,81.675941 
	C97.181099,87.295547 97.446579,92.957428 98.174767,98.530533 
	C101.632484,124.993584 108.247185,150.570374 122.027351,173.679581 
	C128.871002,185.156326 136.906586,195.926956 144.510529,206.942764 
	C146.615799,209.992676 148.798569,210.874298 152.717911,208.446426 
	C156.623245,206.027222 161.550980,204.722961 166.181564,204.149033 
	C171.668030,203.469025 177.316086,204.092850 183.706802,204.376709 
M14.056490,244.555710 
	C18.590010,247.046097 22.859903,250.597809 27.712612,251.803192 
	C37.441776,254.219833 47.491364,255.342972 57.404560,257.024353 
	C60.428810,257.537323 63.439548,258.129883 67.355049,258.851624 
	C66.504150,257.221588 66.379532,256.551239 66.067528,256.448181 
	C57.935135,253.761688 50.496773,248.779266 41.233757,249.884308 
	C36.294884,250.473495 31.649689,244.911896 32.128613,239.762787 
	C32.217300,238.809326 33.082115,237.893341 33.687881,237.029617 
	C35.123665,234.982376 36.509365,232.883011 38.131149,230.989594 
	C39.110332,229.846390 40.383953,228.541458 41.728516,228.251419 
	C42.878353,228.003387 44.721397,228.738922 45.548656,229.669724 
	C47.535381,231.905045 49.105545,234.510590 50.236980,236.109329 
	C54.705505,234.518509 58.671516,231.591156 61.533142,232.430237 
	C66.249466,233.813156 70.316666,237.540665 74.486122,240.519699 
	C75.126846,240.977478 74.816208,242.722458 75.011826,243.860748 
	C75.185448,244.871063 75.451149,245.865540 75.705513,246.997421 
	C76.425812,246.605240 76.884499,246.515091 76.973724,246.282944 
	C78.297195,242.839554 79.962723,240.359970 84.475250,240.899353 
	C88.240036,241.349350 91.048637,242.479630 92.986443,245.886536 
	C93.558578,246.892410 95.147621,247.732468 96.365730,247.883911 
	C100.675430,248.419830 105.023956,248.664185 109.363586,248.920624 
	C110.202675,248.970200 111.067986,248.576141 112.398552,248.280746 
	C106.506653,241.456100 100.394096,236.174591 92.455688,232.906906 
	C79.473984,227.563263 66.063225,225.348526 52.115570,226.006805 
	C41.897903,226.489029 31.913486,225.481781 22.308792,221.703598 
	C21.217196,221.274185 19.973312,221.231949 17.977722,220.854752 
	C20.231730,225.398605 22.140268,229.067535 23.887081,232.811920 
	C26.147072,237.656342 25.465097,239.109802 20.649645,241.007858 
	C18.512190,241.850357 16.511600,243.040100 14.056490,244.555710 
M196.032959,235.385788 
	C196.145569,230.486877 195.837128,224.385010 191.470520,222.795425 
	C188.619370,221.757538 183.866852,225.942780 179.822052,227.856491 
	C188.497726,251.590424 180.780533,267.266327 155.963867,274.031372 
	C166.198578,285.753326 187.727798,281.835602 194.060028,268.518066 
	C198.960983,258.210663 197.290314,247.158401 196.032959,235.385788 
M234.749008,252.071075 
	C241.270767,248.831375 242.168335,249.103439 243.818512,254.982681 
	C242.928146,248.816788 246.366562,247.835083 251.301605,247.851044 
	C253.666183,247.858704 256.013519,246.469177 258.406433,245.861084 
	C263.210999,244.640137 268.041534,243.521210 272.861328,242.360184 
	C275.673126,241.518539 278.539825,240.268250 281.407440,239.019897 
	C283.001709,238.325851 284.694916,237.797974 286.174255,236.912415 
	C290.721985,234.190125 294.304108,228.381302 300.946259,232.623245 
	C301.372498,232.895447 302.566833,231.842270 303.450378,231.542999 
	C306.882507,230.380463 310.266357,228.869904 313.800110,228.282394 
	C316.307526,227.865524 319.020264,228.856094 321.652771,228.984894 
	C328.277771,229.309067 331.198914,226.143799 331.290192,219.616119 
	C321.549896,221.064270 311.718414,223.030746 301.792023,223.859177 
	C291.958038,224.679886 282.484283,226.119446 273.593719,230.675537 
	C266.532593,234.294113 259.379883,237.769669 252.091690,240.898453 
	C245.876205,243.566711 239.284592,245.364883 233.092148,248.079025 
	C227.627274,250.474274 227.632446,252.802124 232.474716,256.229736 
	C232.994171,254.917587 233.515366,253.601013 234.749008,252.071075 
M153.976288,263.511078 
	C155.975327,262.714447 157.911240,261.604889 159.986511,261.186249 
	C164.340363,260.307983 164.488800,257.908905 164.019836,254.009827 
	C163.274521,247.813293 162.649216,241.349564 163.613831,235.258667 
	C165.102875,225.856277 170.367111,218.490463 180.206848,214.366791 
	C174.710281,211.739151 170.064636,212.449844 165.223724,213.756363 
	C154.706406,216.594894 148.014648,224.949463 148.001602,235.756348 
	C147.994965,241.249741 148.000107,246.743134 148.000015,252.236526 
	C147.999939,256.307434 148.000000,260.378326 148.000000,264.955383 
	C150.420578,264.436127 151.838043,264.132050 153.976288,263.511078 
M139.351974,225.349167 
	C143.447388,217.624100 136.085678,214.876587 132.950470,209.817657 
	C129.654587,224.576843 130.361206,227.118149 108.274132,226.268661 
	C118.501297,237.555115 127.984940,248.021042 137.468582,258.486969 
	C138.026459,258.165771 138.584320,257.844604 139.142181,257.523407 
	C139.142181,247.080246 139.142181,236.637085 139.351974,225.349167 
M211.650925,209.962341 
	C214.389038,208.178909 216.537354,209.112976 218.738861,211.167892 
	C221.825317,214.048843 225.307480,216.173645 230.360214,215.256958 
	C224.983368,210.711060 220.110611,206.591370 214.664307,201.986771 
	C211.400452,206.417648 207.407837,211.772766 203.525757,217.206818 
	C203.129059,217.762100 203.107666,218.915680 203.396683,219.581207 
	C207.843689,229.821289 205.361221,240.614532 205.996628,251.152527 
	C206.109818,253.029755 206.174377,254.909927 206.261398,256.788757 
	C206.707520,256.958649 207.153641,257.128571 207.599762,257.298462 
	C213.416534,250.670502 219.233307,244.042542 225.394775,237.021805 
	C219.979080,229.775223 214.725800,223.062515 209.950470,216.025482 
	C209.207962,214.931305 210.648422,212.355759 211.650925,209.962341 
M79.066185,258.389374 
	C78.415306,259.984436 77.764420,261.579498 76.760201,264.040466 
	C88.738380,269.286652 100.070450,274.806335 111.816483,279.225739 
	C121.979012,283.049316 131.923523,281.161285 141.169342,275.063293 
	C136.198227,270.891754 131.486572,266.937958 126.380585,262.653259 
	C125.949303,267.330811 125.264900,271.798187 120.077843,271.767761 
	C115.877121,271.743164 110.744385,271.617218 107.690231,269.321198 
	C101.925003,264.987061 93.641922,265.792542 89.082901,259.453827 
	C88.630386,258.824707 86.873833,259.143829 85.724976,259.002838 
	C83.760460,258.761658 81.797890,258.504700 79.066185,258.389374 
M296.732788,257.213531 
	C309.674591,255.818970 321.901001,251.794373 334.487061,247.629120 
	C331.950165,244.964722 329.942474,242.856125 328.011200,240.827789 
	C326.323090,242.350220 325.112457,244.200256 323.459747,244.771606 
	C320.210938,245.894775 316.663147,246.116928 313.333435,247.049042 
	C302.994476,249.943237 292.686066,252.950287 282.412323,256.066925 
	C281.535492,256.332916 281.003876,257.736816 280.311859,258.612091 
	C281.267639,258.871155 282.259796,259.442352 283.172974,259.335938 
	C287.432831,258.839539 291.670807,258.155975 296.732788,257.213531 
M239.855728,275.240021 
	C237.996521,272.865356 236.137329,270.490662 234.278122,268.115997 
	C234.017471,268.815491 233.756821,269.515015 233.496185,270.214508 
	C230.228806,270.804688 226.979111,271.532166 223.690277,271.955688 
	C217.286438,272.780426 219.883530,266.861755 218.416672,263.944183 
	C214.336456,267.902130 210.592651,271.533722 206.828674,275.184937 
	C216.349731,282.600616 235.666626,283.162292 242.211395,276.314087 
	C241.574829,276.087067 240.957596,275.866913 239.855728,275.240021 
M137.748505,15.055445 
	C150.660263,13.671446 163.572006,12.287448 176.483765,10.903449 
	C176.427322,10.413979 176.370880,9.924509 176.314438,9.435039 
	C160.797424,8.369561 145.372406,8.257384 130.518692,14.065501 
	C130.569000,14.645745 130.619324,15.225988 130.669632,15.806232 
	C132.756607,15.592875 134.843567,15.379518 137.748505,15.055445 
M165.502686,28.999987 
	C169.060791,28.999987 172.618912,28.999987 176.177017,28.999987 
	C176.290176,28.307365 176.403336,27.614744 176.516495,26.922125 
	C173.258270,26.279825 169.893570,25.950386 166.777649,24.889936 
	C164.541077,24.128754 161.520645,22.831112 160.799408,21.003471 
	C158.841019,16.040901 156.777649,17.999615 154.269897,19.909912 
	C155.856232,28.994200 155.856232,28.994200 165.502686,28.999987 
M253.714828,272.104431 
	C259.145996,269.315033 264.577148,266.525635 270.008331,263.736237 
	C268.597992,262.254425 267.474060,261.681183 266.554504,261.914246 
	C261.958405,263.079285 257.376099,264.332977 252.866821,265.795563 
	C249.033020,267.039062 248.138107,269.857513 249.509201,273.848724 
	C250.721481,273.372314 251.904861,272.907288 253.714828,272.104431 
M105.445213,22.853310 
	C99.656525,26.079569 93.807655,29.205780 88.131912,32.619801 
	C87.047554,33.272057 86.645943,35.059376 85.929337,36.323017 
	C89.219780,34.828186 91.419373,32.834316 93.984360,31.599346 
	C101.598282,27.933439 109.378609,24.614471 117.033867,21.031656 
	C118.204971,20.483551 119.058311,19.256493 120.058624,18.343456 
	C119.706497,18.012045 119.354370,17.680635 119.002235,17.349226 
	C114.702255,19.057373 110.402267,20.765518 105.445213,22.853310 
M249.131104,52.969364 
	C245.793213,54.363377 242.288315,55.469326 239.185226,57.268337 
	C237.540756,58.221718 236.372818,60.270531 235.490158,62.070251 
	C235.272354,62.514328 237.096558,64.779381 237.826691,64.703934 
	C239.520096,64.528938 241.310104,63.696499 242.717392,62.662838 
	C246.082199,60.191395 249.248627,57.449886 253.036957,54.378086 
	C252.135834,53.919411 250.953171,53.317444 249.131104,52.969364 
M99.923233,61.473385 
	C96.317902,60.151299 92.712570,58.829208 87.766884,57.015606 
	C92.567215,61.626759 96.058807,65.304161 99.985268,68.436455 
	C100.645271,68.962975 103.185837,67.132141 104.857483,66.390526 
	C103.446518,64.865852 102.035545,63.341175 99.923233,61.473385 
M116.181465,208.453918 
	C113.530655,209.653488 111.317566,211.536072 113.409691,214.372253 
	C114.465523,215.803589 117.427002,216.888611 119.118286,216.471924 
	C120.592468,216.108749 121.493195,213.417877 122.647293,211.755508 
	C120.722664,210.568268 118.798042,209.381012 116.181465,208.453918 
M80.716682,182.284073 
	C81.264275,182.798126 82.278923,183.775375 82.293427,183.760742 
	C84.883835,181.148758 87.402962,178.466080 90.502853,175.171570 
	C85.940643,175.677795 82.201683,176.092667 78.092384,176.548630 
	C79.038689,178.736435 79.689865,180.241928 80.716682,182.284073 
M96.874390,206.205261 
	C95.925560,211.047562 99.868721,212.905014 102.797684,215.535309 
	C102.957535,212.524811 103.117393,209.514297 103.299896,206.077194 
	C101.114952,206.077194 99.337486,206.077194 96.874390,206.205261 
M93.262840,148.355911 
	C94.408257,151.338455 96.130768,152.993713 99.785660,151.044022 
	C98.792549,148.164337 97.842827,145.410446 96.604813,141.820602 
	C95.103897,144.362915 94.136284,146.001892 93.262840,148.355911 
M119.571091,192.257950 
	C119.153023,193.941254 118.734955,195.624557 118.179008,197.863037 
	C120.200096,198.270721 121.931580,198.619995 125.052361,199.249512 
	C122.867332,196.109436 121.516716,194.168488 119.571091,192.257950 
M84.083565,98.580490 
	C85.245201,99.762115 86.406845,100.943741 87.568481,102.125366 
	C87.895798,101.778107 88.223114,101.430847 88.550423,101.083588 
	C88.246323,99.493919 87.942223,97.904259 87.455971,95.362442 
	C86.030235,96.425537 85.070717,97.140999 84.083565,98.580490 
z"/>
<path fill="#000000" opacity="1.000000" stroke="none" 
	d="
M347.000000,242.531342 
	C343.855072,240.248886 340.605133,237.601715 337.672882,234.640045 
	C337.206879,234.169403 337.888428,232.112595 338.516937,231.079651 
	C343.464600,222.948257 343.368073,213.984268 342.942902,204.980087 
	C342.757599,201.055176 340.606354,199.826447 337.404633,202.201019 
	C323.468842,212.536606 307.535309,215.417923 290.655121,216.185364 
	C276.495270,216.829117 263.852539,222.871948 251.688416,229.816223 
	C249.589279,231.014587 247.264709,231.818100 244.222565,232.015686 
	C246.360214,228.667175 248.363922,225.223770 250.657776,221.985931 
	C263.389221,204.015076 273.855011,184.819824 280.096130,163.677139 
	C284.671600,148.177185 289.464783,132.490250 291.453735,116.548882 
	C293.430267,100.707054 292.127594,84.442528 292.029327,68.364799 
	C292.004395,64.290802 291.842316,59.935314 290.421997,56.213348 
	C287.797821,49.336372 281.552216,46.674328 274.265167,48.421173 
	C271.215027,49.152351 268.270477,50.447151 265.192566,50.883644 
	C263.810272,51.079674 262.218445,49.797852 260.721680,49.186630 
	C261.349579,47.859303 261.634338,46.111889 262.661255,45.273037 
	C269.160248,39.964268 269.402893,31.113165 262.059235,27.238260 
	C249.499557,20.611109 236.520416,14.722034 223.460190,9.123008 
	C216.260651,6.036510 208.537262,4.171988 201.025024,1.378281 
	C249.611740,1.000000 298.223480,1.000000 347.000000,1.000000 
	C347.000000,81.354149 347.000000,161.708420 347.000000,242.531342 
z"/>
<path fill="#000000" opacity="1.000000" stroke="none" 
	d="
M132.531342,0.999999 
	C131.904373,1.730052 130.902145,2.832109 129.699051,3.134218 
	C112.364136,7.487200 96.339546,14.790824 81.184921,24.181522 
	C74.640228,28.236996 72.604149,31.086344 74.260658,36.697269 
	C75.070740,39.441162 77.220299,41.794044 78.789497,44.307735 
	C79.752686,45.850666 81.163376,47.242462 81.669304,48.915020 
	C82.621948,52.064442 78.893639,55.264549 75.574692,54.257805 
	C72.409721,53.297768 69.373672,51.872242 66.176323,51.066528 
	C53.493645,47.870541 46.523613,52.397209 46.211231,65.443466 
	C45.774769,83.671844 45.594425,101.869591 48.619911,120.099472 
	C53.161163,147.462509 62.669125,172.869278 75.672523,197.106155 
	C79.871414,204.932419 84.983582,212.268692 90.574532,221.273041 
	C85.548225,220.029373 81.909706,218.645996 78.176025,218.305191 
	C70.255486,217.582260 62.242813,216.682922 54.344467,217.150116 
	C38.015362,218.115952 24.049490,212.941818 11.422983,203.026398 
	C10.065623,201.960480 7.909021,201.912338 6.123167,201.392090 
	C5.784079,203.093414 4.857022,204.926819 5.204525,206.473923 
	C7.006836,214.497925 9.243464,222.424500 11.035051,230.450592 
	C11.313934,231.699951 10.489780,233.935257 9.461184,234.587006 
	C7.121206,236.069748 4.337086,236.851562 1.366735,237.959122 
	C1.000000,159.093735 1.000000,80.187485 1.000000,1.000000 
	C44.687160,1.000000 88.374924,1.000000 132.531342,0.999999 
z"/>
<path fill="#000000" opacity="1.000000" stroke="none" 
	d="
M0.999998,249.468658 
	C3.071062,250.516251 5.069553,252.145554 7.225461,253.529633 
	C17.874615,260.366333 29.653078,264.341949 42.174801,264.824310 
	C53.902298,265.276093 64.481613,268.626465 74.749672,273.842712 
	C84.439713,278.765350 94.239807,283.471313 103.995743,288.636292 
	C69.772026,289.000000 35.544060,289.000000 1.000000,289.000000 
	C1.000000,275.980804 1.000000,262.959076 0.999998,249.468658 
z"/>
<path fill="#000000" opacity="1.000000" stroke="none" 
	d="
M246.468658,289.000000 
	C246.981537,288.044708 247.803421,286.770630 248.970642,286.186066 
	C256.355591,282.487427 263.662628,278.562897 271.295898,275.449860 
	C279.180267,272.234467 287.224091,268.519226 295.520538,267.388916 
	C313.232300,264.975830 330.106537,260.368103 346.627502,252.926788 
	C347.000000,264.961548 347.000000,276.923126 347.000000,289.000000 
	C313.645844,289.000000 280.291595,289.000000 246.468658,289.000000 
z"/>
<path fill="#000000" opacity="1.000000" stroke="none" 
	d="
M188.466858,289.000000 
	C194.081772,282.595795 196.085297,282.529205 204.012939,288.642761 
	C198.977905,289.000000 193.955811,289.000000 188.466858,289.000000 
z"/>
<path fill="#000000" opacity="1.000000" stroke="none" 
	d="
M142.464630,289.000000 
	C144.389526,287.068756 146.779053,285.137543 149.401459,283.018097 
	C151.878677,284.974609 153.981735,286.635559 156.042389,288.648254 
	C151.643097,289.000000 147.286194,289.000000 142.464630,289.000000 
z"/>
<path fill="#000000" opacity="1.000000" stroke="none" 
	d="
M183.300446,204.264145 
	C177.316086,204.092850 171.668030,203.469025 166.181564,204.149033 
	C161.550980,204.722961 156.623245,206.027222 152.717911,208.446426 
	C148.798569,210.874298 146.615799,209.992676 144.510529,206.942764 
	C136.906586,195.926956 128.871002,185.156326 122.027351,173.679581 
	C108.247185,150.570374 101.632484,124.993584 98.174767,98.530533 
	C97.446579,92.957428 97.181099,87.295547 97.196632,81.675941 
	C97.199997,80.458618 99.376450,78.153175 100.473648,78.199615 
	C113.702896,78.759537 115.449089,68.758270 111.196976,57.610149 
	C111.028503,57.168449 110.886497,56.716656 110.341545,55.138031 
	C117.976906,51.453735 125.397087,47.040756 133.375778,44.191971 
	C151.483353,37.726662 170.193512,35.769871 189.026566,40.627312 
	C200.188736,43.506268 211.074753,47.454727 222.088699,50.910301 
	C225.971756,52.128590 227.729492,53.965927 227.210007,58.770115 
	C225.997726,69.980927 227.413513,71.268593 238.346893,74.193718 
	C239.484131,74.497986 240.884598,76.685349 240.867218,77.981598 
	C240.736694,87.710480 240.822952,97.492142 239.805267,107.148087 
	C238.084534,123.474434 234.065765,139.325912 227.983887,154.628082 
	C220.524048,173.397308 210.148514,190.463150 197.941589,206.469833 
	C197.148193,207.510178 196.047714,208.316345 195.000854,209.316711 
	C191.195496,207.652252 187.451157,206.014481 183.300446,204.264145 
M178.990829,195.834457 
	C181.479752,194.961319 184.197037,194.473526 186.421951,193.154922 
	C206.854675,181.045364 220.977646,164.161713 223.645081,139.916367 
	C224.327164,133.716812 222.529190,126.617226 219.901657,120.824203 
	C215.712967,111.589165 206.247910,110.350067 197.238892,108.923759 
	C191.929581,108.083191 186.273056,107.329460 181.675369,104.857635 
	C178.719986,103.268753 177.169556,98.728058 175.682327,95.216919 
	C175.514740,94.821266 179.804977,92.421097 182.130356,91.135567 
	C183.266754,90.507347 184.645111,90.324646 185.902802,89.906715 
	C193.126892,87.506187 195.963959,82.876579 194.942108,75.177750 
	C194.417068,71.221893 192.417557,70.163383 188.691559,71.874710 
	C186.287201,72.979004 183.961075,74.311241 181.469254,75.155952 
	C175.384766,77.218536 169.319870,79.513100 163.060699,80.824883 
	C158.916382,81.693451 151.836380,77.019981 151.627335,73.750290 
	C151.335236,69.181961 154.915909,66.899651 158.399780,64.884933 
	C164.716858,61.231781 171.040710,62.614452 177.520828,64.601326 
	C179.713196,65.273529 183.765381,65.532173 184.434555,64.434952 
	C186.266296,61.431458 183.948166,58.903427 181.256226,57.114010 
	C180.567963,56.656502 179.904678,56.161457 179.217270,55.702641 
	C171.649536,50.651600 163.686081,49.398380 155.265213,53.374069 
	C146.842880,57.350441 142.712845,64.191010 141.983154,73.358345 
	C141.354355,81.258377 143.641891,88.033562 149.458633,93.218475 
	C131.226471,110.267563 118.825424,129.240280 121.926033,155.321182 
	C124.017090,172.910141 139.353485,189.965225 155.564270,194.905472 
	C162.957535,197.158585 170.525497,197.537766 178.990829,195.834457 
z"/>
<path fill="#000000" opacity="1.000000" stroke="none" 
	d="
M240.939209,151.857666 
	C242.951401,143.839813 245.294388,135.887863 246.907867,127.790558 
	C250.421112,110.159142 251.758652,92.296295 250.893005,74.342850 
	C250.638016,69.054489 252.577988,66.447571 257.426666,64.944939 
	C263.112213,63.182957 268.679749,61.009747 274.217041,58.809921 
	C278.129822,57.255451 280.470520,58.517342 281.153839,62.445042 
	C281.972656,67.151787 282.771667,71.915863 282.921387,76.675804 
	C283.570374,97.310234 281.838409,117.659012 276.731903,137.801620 
	C272.023651,156.373215 264.644989,173.786926 256.404785,190.936203 
	C256.113342,191.542694 255.730118,192.105026 254.815704,193.670761 
	C253.999802,190.237686 253.500565,188.137054 253.001328,186.036438 
	C253.374741,186.256073 253.748169,186.475708 254.121582,186.695328 
	C256.474823,183.368256 259.459778,180.315552 261.048889,176.656616 
	C264.285675,169.203903 266.783905,161.429398 269.558716,153.777451 
	C271.257202,149.093628 269.265076,145.575470 266.018982,143.217987 
	C268.751373,141.983078 273.526794,140.782242 273.506989,139.666473 
	C273.425415,135.068649 278.487579,130.196320 273.999908,125.688309 
	C274.807861,124.557709 276.897156,122.932121 276.744537,121.554977 
	C276.491547,119.272163 274.795959,117.149223 273.729340,115.001678 
	C275.011932,113.599075 277.446991,111.595802 279.025574,109.059456 
	C281.565948,104.977844 278.363617,103.646225 274.823730,102.476692 
	C278.655426,102.414276 280.430573,101.047478 280.033752,97.150650 
	C279.640381,93.287910 276.854553,93.420036 274.312714,93.059105 
	C271.593842,92.673058 268.842163,92.518166 266.188202,91.185211 
	C269.358154,91.451401 272.531189,91.685760 275.697205,91.992615 
	C278.950714,92.307961 280.118774,90.868065 280.043945,87.647690 
	C279.976776,84.756241 279.561890,82.933617 275.995148,82.940224 
	C272.038269,82.947563 268.080811,82.334312 264.122589,82.003601 
	C253.561859,81.121254 253.070312,87.165878 254.501801,95.597755 
	C254.879135,97.820366 255.561630,99.226997 254.021759,101.504318 
	C250.833450,106.219566 254.464050,108.065536 259.079407,109.730949 
	C250.760223,111.379219 250.619797,117.675835 250.036789,123.691277 
	C249.063126,133.737228 258.826050,129.059387 263.335297,134.004044 
	C259.150940,134.004044 255.714813,133.707214 252.365311,134.117508 
	C250.416641,134.356216 248.048538,135.261917 246.853775,136.690765 
	C244.546860,139.449722 247.327026,141.044662 249.152542,142.660538 
	C250.363113,143.732117 251.578247,144.798569 253.032715,146.493500 
	C246.764404,143.353531 243.141068,145.431641 241.202362,151.669403 
	C240.892517,151.817596 240.939209,151.857666 240.939209,151.857666 
z"/>
<path fill="#000000" opacity="1.000000" stroke="none" 
	d="
M14.252687,244.313965 
	C16.511600,243.040100 18.512190,241.850357 20.649645,241.007858 
	C25.465097,239.109802 26.147072,237.656342 23.887081,232.811920 
	C22.140268,229.067535 20.231730,225.398605 17.977722,220.854752 
	C19.973312,221.231949 21.217196,221.274185 22.308792,221.703598 
	C31.913486,225.481781 41.897903,226.489029 52.115570,226.006805 
	C66.063225,225.348526 79.473984,227.563263 92.455688,232.906906 
	C100.394096,236.174591 106.506653,241.456100 112.398552,248.280746 
	C111.067986,248.576141 110.202675,248.970200 109.363586,248.920624 
	C105.023956,248.664185 100.675430,248.419830 96.365730,247.883911 
	C95.147621,247.732468 93.558578,246.892410 92.986443,245.886536 
	C91.048637,242.479630 88.240036,241.349350 84.475250,240.899353 
	C79.962723,240.359970 78.297195,242.839554 76.973724,246.282944 
	C76.884499,246.515091 76.425812,246.605240 75.705513,246.997421 
	C75.451149,245.865540 75.185448,244.871063 75.011826,243.860748 
	C74.816208,242.722458 75.126846,240.977478 74.486122,240.519699 
	C70.316666,237.540665 66.249466,233.813156 61.533142,232.430237 
	C58.671516,231.591156 54.705505,234.518509 50.236980,236.109329 
	C49.105545,234.510590 47.535381,231.905045 45.548656,229.669724 
	C44.721397,228.738922 42.878353,228.003387 41.728516,228.251419 
	C40.383953,228.541458 39.110332,229.846390 38.131149,230.989594 
	C36.509365,232.883011 35.123665,234.982376 33.687881,237.029617 
	C33.082115,237.893341 32.217300,238.809326 32.128613,239.762787 
	C31.649689,244.911896 36.294884,250.473495 41.233757,249.884308 
	C50.496773,248.779266 57.935135,253.761688 66.067528,256.448181 
	C66.379532,256.551239 66.504150,257.221588 67.355049,258.851624 
	C63.439548,258.129883 60.428810,257.537323 57.404560,257.024353 
	C47.491364,255.342972 37.441776,254.219833 27.712612,251.803192 
	C22.859903,250.597809 18.590010,247.046097 14.252687,244.313965 
z"/>
<path fill="#000000" opacity="1.000000" stroke="none" 
	d="
M70.134926,155.785355 
	C67.755020,149.177338 65.065720,142.662064 63.052502,135.944153 
	C56.696384,114.734482 55.243355,92.949272 56.008179,70.944450 
	C56.025539,70.444931 55.951527,69.927689 56.055119,69.447853 
	C58.183037,59.591843 57.842773,58.637814 67.631424,62.272236 
	C72.446098,64.059875 77.222900,65.980766 82.123703,67.495651 
	C86.288025,68.782883 88.015320,71.458412 87.991142,75.602638 
	C87.972809,78.743851 87.987503,81.885246 87.987503,84.804260 
	C79.925293,87.861862 72.441711,90.929749 64.789421,93.494171 
	C61.522228,94.589073 61.034012,96.471634 60.931454,99.430794 
	C60.819088,102.672890 62.507950,103.819763 65.162254,104.577187 
	C68.476791,105.522987 71.747581,106.622108 75.021873,108.878288 
	C72.958832,109.250977 70.905640,109.868309 68.830956,109.951820 
	C61.780815,110.235619 61.412727,110.626038 62.547741,118.457855 
	C64.155174,118.716629 65.892761,118.996346 66.369446,119.073090 
	C65.374619,120.849670 63.511482,122.831436 63.177364,125.044083 
	C62.399689,130.194138 67.355553,128.287445 69.140648,129.225952 
	C68.042519,132.539230 66.702194,135.537872 66.100586,138.678024 
	C65.433510,142.159958 67.132568,143.502243 70.758217,142.640030 
	C74.006516,141.867523 77.362366,141.547211 81.652809,140.873077 
	C77.826576,146.715805 69.280006,147.163818 70.057953,155.454681 
	C70.094917,155.832520 70.134926,155.785355 70.134926,155.785355 
z"/>
<path fill="#000000" opacity="1.000000" stroke="none" 
	d="
M196.058594,235.838043 
	C197.290314,247.158401 198.960983,258.210663 194.060028,268.518066 
	C187.727798,281.835602 166.198578,285.753326 155.963867,274.031372 
	C180.780533,267.266327 188.497726,251.590424 179.822052,227.856491 
	C183.866852,225.942780 188.619370,221.757538 191.470520,222.795425 
	C195.837128,224.385010 196.145569,230.486877 196.058594,235.838043 
z"/>
<path fill="#000000" opacity="1.000000" stroke="none" 
	d="
M234.392792,252.177765 
	C233.515366,253.601013 232.994171,254.917587 232.474716,256.229736 
	C227.632446,252.802124 227.627274,250.474274 233.092148,248.079025 
	C239.284592,245.364883 245.876205,243.566711 252.091690,240.898453 
	C259.379883,237.769669 266.532593,234.294113 273.593719,230.675537 
	C282.484283,226.119446 291.958038,224.679886 301.792023,223.859177 
	C311.718414,223.030746 321.549896,221.064270 331.290192,219.616119 
	C331.198914,226.143799 328.277771,229.309067 321.652771,228.984894 
	C319.020264,228.856094 316.307526,227.865524 313.800110,228.282394 
	C310.266357,228.869904 306.882507,230.380463 303.450378,231.542999 
	C302.566833,231.842270 301.372498,232.895447 300.946259,232.623245 
	C294.304108,228.381302 290.721985,234.190125 286.174255,236.912415 
	C284.694916,237.797974 283.001709,238.325851 281.407440,239.019897 
	C278.539825,240.268250 275.673126,241.518539 272.861328,242.360184 
	C268.041534,243.521210 263.210999,244.640137 258.406433,245.861084 
	C256.013519,246.469177 253.666183,247.858704 251.301605,247.851044 
	C246.366562,247.835083 242.928146,248.816788 243.818512,254.982681 
	C242.168335,249.103439 241.270767,248.831375 234.392792,252.177765 
z"/>
<path fill="#000000" opacity="1.000000" stroke="none" 
	d="
M153.615906,263.669525 
	C151.838043,264.132050 150.420578,264.436127 148.000000,264.955383 
	C148.000000,260.378326 147.999939,256.307434 148.000015,252.236526 
	C148.000107,246.743134 147.994965,241.249741 148.001602,235.756348 
	C148.014648,224.949463 154.706406,216.594894 165.223724,213.756363 
	C170.064636,212.449844 174.710281,211.739151 180.206848,214.366791 
	C170.367111,218.490463 165.102875,225.856277 163.613831,235.258667 
	C162.649216,241.349564 163.274521,247.813293 164.019836,254.009827 
	C164.488800,257.908905 164.340363,260.307983 159.986511,261.186249 
	C157.911240,261.604889 155.975327,262.714447 153.615906,263.669525 
z"/>
<path fill="#000000" opacity="1.000000" stroke="none" 
	d="
M139.247070,225.771545 
	C139.142181,236.637085 139.142181,247.080246 139.142181,257.523407 
	C138.584320,257.844604 138.026459,258.165771 137.468582,258.486969 
	C127.984940,248.021042 118.501297,237.555115 108.274132,226.268661 
	C130.361206,227.118149 129.654587,224.576843 132.950470,209.817657 
	C136.085678,214.876587 143.447388,217.624100 139.247070,225.771545 
z"/>
<path fill="#000000" opacity="1.000000" stroke="none" 
	d="
M211.365173,210.213806 
	C210.648422,212.355759 209.207962,214.931305 209.950470,216.025482 
	C214.725800,223.062515 219.979080,229.775223 225.394775,237.021805 
	C219.233307,244.042542 213.416534,250.670502 207.599762,257.298462 
	C207.153641,257.128571 206.707520,256.958649 206.261398,256.788757 
	C206.174377,254.909927 206.109818,253.029755 205.996628,251.152527 
	C205.361221,240.614532 207.843689,229.821289 203.396683,219.581207 
	C203.107666,218.915680 203.129059,217.762100 203.525757,217.206818 
	C207.407837,211.772766 211.400452,206.417648 214.664307,201.986771 
	C220.110611,206.591370 224.983368,210.711060 230.360214,215.256958 
	C225.307480,216.173645 221.825317,214.048843 218.738861,211.167892 
	C216.537354,209.112976 214.389038,208.178909 211.365173,210.213806 
z"/>
<path fill="#000000" opacity="1.000000" stroke="none" 
	d="
M79.450348,258.321869 
	C81.797890,258.504700 83.760460,258.761658 85.724976,259.002838 
	C86.873833,259.143829 88.630386,258.824707 89.082901,259.453827 
	C93.641922,265.792542 101.925003,264.987061 107.690231,269.321198 
	C110.744385,271.617218 115.877121,271.743164 120.077843,271.767761 
	C125.264900,271.798187 125.949303,267.330811 126.380585,262.653259 
	C131.486572,266.937958 136.198227,270.891754 141.169342,275.063293 
	C131.923523,281.161285 121.979012,283.049316 111.816483,279.225739 
	C100.070450,274.806335 88.738380,269.286652 76.760201,264.040466 
	C77.764420,261.579498 78.415306,259.984436 79.450348,258.321869 
z"/>
<path fill="#000000" opacity="1.000000" stroke="none" 
	d="
M296.324707,257.376404 
	C291.670807,258.155975 287.432831,258.839539 283.172974,259.335938 
	C282.259796,259.442352 281.267639,258.871155 280.311859,258.612091 
	C281.003876,257.736816 281.535492,256.332916 282.412323,256.066925 
	C292.686066,252.950287 302.994476,249.943237 313.333435,247.049042 
	C316.663147,246.116928 320.210938,245.894775 323.459747,244.771606 
	C325.112457,244.200256 326.323090,242.350220 328.011200,240.827789 
	C329.942474,242.856125 331.950165,244.964722 334.487061,247.629120 
	C321.901001,251.794373 309.674591,255.818970 296.324707,257.376404 
z"/>
<path fill="#000000" opacity="1.000000" stroke="none" 
	d="
M240.098053,275.443420 
	C240.957596,275.866913 241.574829,276.087067 242.211395,276.314087 
	C235.666626,283.162292 216.349731,282.600616 206.828674,275.184937 
	C210.592651,271.533722 214.336456,267.902130 218.416672,263.944183 
	C219.883530,266.861755 217.286438,272.780426 223.690277,271.955688 
	C226.979111,271.532166 230.228806,270.804688 233.496185,270.214508 
	C233.756821,269.515015 234.017471,268.815491 234.278122,268.115997 
	C236.137329,270.490662 237.996521,272.865356 240.098053,275.443420 
z"/>
<path fill="#000000" opacity="1.000000" stroke="none" 
	d="
M137.339523,15.110803 
	C134.843567,15.379518 132.756607,15.592875 130.669632,15.806232 
	C130.619324,15.225988 130.569000,14.645745 130.518692,14.065501 
	C145.372406,8.257384 160.797424,8.369561 176.314438,9.435039 
	C176.370880,9.924509 176.427322,10.413979 176.483765,10.903449 
	C163.572006,12.287448 150.660263,13.671446 137.339523,15.110803 
z"/>
<path fill="#000000" opacity="1.000000" stroke="none" 
	d="
M165.021072,28.999971 
	C155.856232,28.994200 155.856232,28.994200 154.269897,19.909912 
	C156.777649,17.999615 158.841019,16.040901 160.799408,21.003471 
	C161.520645,22.831112 164.541077,24.128754 166.777649,24.889936 
	C169.893570,25.950386 173.258270,26.279825 176.516495,26.922125 
	C176.403336,27.614744 176.290176,28.307365 176.177017,28.999987 
	C172.618912,28.999987 169.060791,28.999987 165.021072,28.999971 
z"/>
<path fill="#000000" opacity="1.000000" stroke="none" 
	d="
M253.401550,272.273346 
	C251.904861,272.907288 250.721481,273.372314 249.509201,273.848724 
	C248.138107,269.857513 249.033020,267.039062 252.866821,265.795563 
	C257.376099,264.332977 261.958405,263.079285 266.554504,261.914246 
	C267.474060,261.681183 268.597992,262.254425 270.008331,263.736237 
	C264.577148,266.525635 259.145996,269.315033 253.401550,272.273346 
z"/>
<path fill="#000000" opacity="1.000000" stroke="none" 
	d="
M105.773743,22.663486 
	C110.402267,20.765518 114.702255,19.057373 119.002235,17.349226 
	C119.354370,17.680635 119.706497,18.012045 120.058624,18.343456 
	C119.058311,19.256493 118.204971,20.483551 117.033867,21.031656 
	C109.378609,24.614471 101.598282,27.933439 93.984360,31.599346 
	C91.419373,32.834316 89.219780,34.828186 85.929337,36.323017 
	C86.645943,35.059376 87.047554,33.272057 88.131912,32.619801 
	C93.807655,29.205780 99.656525,26.079569 105.773743,22.663486 
z"/>
<path fill="#000000" opacity="1.000000" stroke="none" 
	d="
M249.450806,52.842419 
	C250.953171,53.317444 252.135834,53.919411 253.036957,54.378086 
	C249.248627,57.449886 246.082199,60.191395 242.717392,62.662838 
	C241.310104,63.696499 239.520096,64.528938 237.826691,64.703934 
	C237.096558,64.779381 235.272354,62.514328 235.490158,62.070251 
	C236.372818,60.270531 237.540756,58.221718 239.185226,57.268337 
	C242.288315,55.469326 245.793213,54.363377 249.450806,52.842419 
z"/>
<path fill="#000000" opacity="1.000000" stroke="none" 
	d="
M70.071213,155.852371 
	C73.012894,156.912094 75.910240,158.323334 78.963646,158.882767 
	C81.766808,159.396362 84.738182,158.991852 87.635437,158.991852 
	C87.789597,159.563492 87.943756,160.135132 88.097908,160.706772 
	C83.444962,162.848999 78.792007,164.991226 73.494423,167.430252 
	C72.393333,163.943985 71.234497,160.274841 70.105293,156.195526 
	C70.134926,155.785355 70.094917,155.832520 70.071213,155.852371 
z"/>
<path fill="#000000" opacity="1.000000" stroke="none" 
	d="
M242.066757,28.911869 
	C246.594696,31.154493 251.122635,33.397121 256.931061,36.273949 
	C251.409256,39.348885 247.256073,41.661686 241.959000,44.611481 
	C247.679138,33.613106 247.679138,33.613106 241.734985,29.718204 
	C241.808655,29.159500 241.937714,29.035686 242.066757,28.911869 
z"/>
<path fill="#000000" opacity="1.000000" stroke="none" 
	d="
M100.273911,61.644943 
	C102.035545,63.341175 103.446518,64.865852 104.857483,66.390533 
	C103.185837,67.132141 100.645271,68.962975 99.985268,68.436455 
	C96.058807,65.304161 92.567215,61.626759 87.766884,57.015606 
	C92.712570,58.829208 96.317902,60.151299 100.273911,61.644943 
z"/>
<path fill="#000000" opacity="1.000000" stroke="none" 
	d="
M116.527435,208.323853 
	C118.798042,209.381012 120.722664,210.568268 122.647293,211.755508 
	C121.493195,213.417877 120.592468,216.108749 119.118286,216.471924 
	C117.427002,216.888611 114.465523,215.803589 113.409691,214.372253 
	C111.317566,211.536072 113.530655,209.653488 116.527435,208.323853 
z"/>
<path fill="#000000" opacity="1.000000" stroke="none" 
	d="
M80.528862,182.015747 
	C79.689865,180.241928 79.038689,178.736435 78.092384,176.548630 
	C82.201683,176.092667 85.940643,175.677795 90.502853,175.171570 
	C87.402962,178.466080 84.883835,181.148758 82.293427,183.760742 
	C82.278923,183.775375 81.264275,182.798126 80.528862,182.015747 
z"/>
<path fill="#000000" opacity="1.000000" stroke="none" 
	d="
M97.217209,206.141235 
	C99.337486,206.077194 101.114952,206.077194 103.299896,206.077194 
	C103.117393,209.514297 102.957535,212.524811 102.797684,215.535309 
	C99.868721,212.905014 95.925560,211.047562 97.217209,206.141235 
z"/>
<path fill="#000000" opacity="1.000000" stroke="none" 
	d="
M93.215759,147.998383 
	C94.136284,146.001892 95.103897,144.362915 96.604813,141.820602 
	C97.842827,145.410446 98.792549,148.164337 99.785660,151.044022 
	C96.130768,152.993713 94.408257,151.338455 93.215759,147.998383 
z"/>
<path fill="#000000" opacity="1.000000" stroke="none" 
	d="
M223.747559,190.608093 
	C223.444061,192.828430 223.140549,195.048767 222.792297,197.596390 
	C221.415131,198.035019 219.550522,198.628891 216.611816,199.564865 
	C218.860001,195.987045 220.630447,193.169510 222.867889,190.308868 
	C223.472427,190.379868 223.609985,190.493973 223.747559,190.608093 
z"/>
<path fill="#000000" opacity="1.000000" stroke="none" 
	d="
M240.872833,151.793961 
	C238.960602,157.634933 237.068039,163.499557 234.729645,169.342102 
	C234.159836,169.191116 234.035873,169.062180 233.911911,168.933243 
	C236.079010,163.406586 238.246094,157.879913 240.676193,152.105469 
	C240.939209,151.857666 240.892517,151.817596 240.872833,151.793961 
z"/>
<path fill="#000000" opacity="1.000000" stroke="none" 
	d="
M119.868591,192.242737 
	C121.516716,194.168488 122.867332,196.109436 125.052361,199.249512 
	C121.931580,198.619995 120.200096,198.270721 118.179008,197.863037 
	C118.734955,195.624557 119.153023,193.941254 119.868591,192.242737 
z"/>
<path fill="#000000" opacity="1.000000" stroke="none" 
	d="
M86.259995,129.387848 
	C88.081665,127.445107 89.903343,125.502357 91.581612,123.712547 
	C94.237648,128.759216 93.795563,129.656677 87.278885,129.883240 
	C86.530533,129.619507 86.395264,129.503693 86.259995,129.387848 
z"/>
<path fill="#000000" opacity="1.000000" stroke="none" 
	d="
M84.097382,98.218475 
	C85.070717,97.140999 86.030235,96.425537 87.455971,95.362442 
	C87.942223,97.904259 88.246323,99.493919 88.550423,101.083588 
	C88.223114,101.430847 87.895798,101.778107 87.568481,102.125366 
	C86.406845,100.943741 85.245201,99.762115 84.097382,98.218475 
z"/>
<path fill="#000000" opacity="1.000000" stroke="none" 
	d="
M223.129227,190.093750 
	C224.168289,187.485535 225.413010,185.049301 227.114594,181.718857 
	C228.824539,186.311798 227.800827,188.717636 224.013718,190.388275 
	C223.609985,190.493973 223.472427,190.379868 223.129227,190.093750 
z"/>
<path fill="#000000" opacity="1.000000" stroke="none" 
	d="
M234.469208,169.513977 
	C233.486435,172.581970 232.318237,175.456039 231.150055,178.330124 
	C230.567871,178.072311 229.985703,177.814514 229.403519,177.556717 
	C230.731903,174.829712 232.060272,172.102707 233.650284,169.154480 
	C234.035873,169.062180 234.159836,169.191116 234.469208,169.513977 
z"/>
<path fill="#000000" opacity="1.000000" stroke="none" 
	d="
M241.485504,29.468472 
	C239.892609,28.909147 238.493820,28.164665 237.095032,27.420185 
	C237.237717,27.109028 237.380402,26.797871 237.523087,26.486713 
	C238.906830,27.130976 240.290588,27.775238 241.870544,28.665684 
	C241.937714,29.035686 241.808655,29.159500 241.485504,29.468472 
z"/>
<path fill="#000000" opacity="1.000000" stroke="none" 
	d="
M86.867676,129.910278 
	C86.683174,130.244492 86.296799,130.403748 85.910431,130.563004 
	C85.940300,130.273514 85.970169,129.984009 86.130020,129.541199 
	C86.395264,129.503693 86.530533,129.619507 86.867676,129.910278 
z"/>
<path fill="#291770" opacity="1.000000" stroke="none" 
	d="
M178.565033,195.884964 
	C170.525497,197.537766 162.957535,197.158585 155.564270,194.905472 
	C139.353485,189.965225 124.017090,172.910141 121.926033,155.321182 
	C118.825424,129.240280 131.226471,110.267563 149.458633,93.218475 
	C143.641891,88.033562 141.354355,81.258377 141.983154,73.358345 
	C142.712845,64.191010 146.842880,57.350441 155.265213,53.374069 
	C163.686081,49.398380 171.649536,50.651600 179.217270,55.702641 
	C179.904678,56.161457 180.567963,56.656502 181.256226,57.114010 
	C183.948166,58.903427 186.266296,61.431458 184.434555,64.434952 
	C183.765381,65.532173 179.713196,65.273529 177.520828,64.601326 
	C171.040710,62.614452 164.716858,61.231781 158.399780,64.884933 
	C154.915909,66.899651 151.335236,69.181961 151.627335,73.750290 
	C151.836380,77.019981 158.916382,81.693451 163.060699,80.824883 
	C169.319870,79.513100 175.384766,77.218536 181.469254,75.155952 
	C183.961075,74.311241 186.287201,72.979004 188.691559,71.874710 
	C192.417557,70.163383 194.417068,71.221893 194.942108,75.177750 
	C195.963959,82.876579 193.126892,87.506187 185.902802,89.906715 
	C184.645111,90.324646 183.266754,90.507347 182.130356,91.135567 
	C179.804977,92.421097 175.514740,94.821266 175.682327,95.216919 
	C177.169556,98.728058 178.719986,103.268753 181.675369,104.857635 
	C186.273056,107.329460 191.929581,108.083191 197.238892,108.923759 
	C206.247910,110.350067 215.712967,111.589165 219.901657,120.824203 
	C222.529190,126.617226 224.327164,133.716812 223.645081,139.916367 
	C220.977646,164.161713 206.854675,181.045364 186.421951,193.154922 
	C184.197037,194.473526 181.479752,194.961319 178.565033,195.884964 
M136.828094,159.485779 
	C147.533035,181.223755 174.848740,183.327896 190.909607,173.556885 
	C203.738449,165.752136 210.044754,153.464355 212.800003,139.481522 
	C215.266113,126.965897 213.026428,125.120728 200.226089,124.970558 
	C191.465179,124.867783 183.108521,123.092476 175.795166,117.895142 
	C172.036606,115.224068 169.971512,111.624725 170.003387,106.925476 
	C170.024261,103.846138 170.007324,100.766541 170.007324,97.080055 
	C168.452972,97.738419 167.848358,97.919800 167.318909,98.229599 
	C150.664047,107.975105 140.964737,123.010498 135.248322,140.921585 
	C133.337830,146.907654 133.703369,153.015244 136.828094,159.485779 
z"/>
<path fill="#000000" opacity="1.000000" stroke="none" 
	d="
M136.619629,159.161087 
	C133.703369,153.015244 133.337830,146.907654 135.248322,140.921585 
	C140.964737,123.010498 150.664047,107.975105 167.318909,98.229599 
	C167.848358,97.919800 168.452972,97.738419 170.007324,97.080055 
	C170.007324,100.766541 170.024261,103.846138 170.003387,106.925476 
	C169.971512,111.624725 172.036606,115.224068 175.795166,117.895142 
	C183.108521,123.092476 191.465179,124.867783 200.226089,124.970558 
	C213.026428,125.120728 215.266113,126.965897 212.800003,139.481522 
	C210.044754,153.464355 203.738449,165.752136 190.909607,173.556885 
	C174.848740,183.327896 147.533035,181.223755 136.619629,159.161087 
z"/>
</svg>